<?xml version="1.0" encoding="UTF-8"?>
<svg id="Camada_2" data-name="Camada 2" xmlns="http://www.w3.org/2000/svg" viewBox="0 0 218.8 48.51">
  <defs>
    <style>
      .cls-1 {
        fill: #fff;
      }
    </style>
  </defs>
  <g id="Layer_1" data-name="Layer 1">
    <g>
      <path class="cls-1" d="m140.31,7.8h-.19c-9.84.1-15.91,7.56-15.91,16.91s5.53,16.53,15.56,16.53h.34c9.78-.13,15.91-6.73,15.91-17.06,0-8.64-5.29-16.38-15.72-16.38Zm-.09,26.58h-.1c-4.18-.01-6.78-4.05-6.73-9.86,0-5.62,2.55-9.85,6.73-9.85s6.73,4.23,6.73,9.8c0,5.87-2.46,9.91-6.63,9.91Zm72.24-11.16v-.09c3.8-1.44,5.28-4.09,5.28-6.77,0-3.17-1.82-5.48-4.37-6.68-2.13-1.06-4.45-1.46-7.92-1.56-.63-.02-1.28-.02-1.98-.02-3.98,0-8.26.33-10.23.71v31.72c1.73.34,4.61.58,8.56.58,1.31,0,2.53-.04,3.66-.12,4.74-.32,7.75-1.3,9.7-2.76,2.17-1.64,3.65-4.04,3.65-7.12,0-3.84-2.4-6.78-6.34-7.88Zm-10.63-8.69c.58-.1,1.4-.2,2.84-.2.26,0,.53.02.78.04,2.41.19,3.6,1.33,3.6,3.04s-1.18,2.85-3.6,3.24c-.57.08-1.19.13-1.88.13h-1.74v-6.24Zm3.62,20.17c-.37.04-.74.06-1.11.06-1.11,0-1.88,0-2.51-.1v-7.73h2.07c.54,0,1.05.02,1.55.08,2.47.31,4.22,1.42,4.22,3.71,0,2.51-1.85,3.71-4.22,3.98Zm-14.82-10.52c0-8.64-5.29-16.38-15.72-16.38h-.19c-9.83.1-15.91,7.56-15.91,16.91s5.52,16.53,15.57,16.53h.33c9.78-.13,15.91-6.73,15.91-17.06Zm-15.82,10.2h-.09c-4.18-.01-6.77-4.04-6.72-9.86,0-5.62,2.54-9.85,6.72-9.85s6.73,4.23,6.73,9.8c0,5.87-2.45,9.91-6.64,9.91Zm-53.09-1.31c-1.35.53-3.71.91-5.77.91-5.96,0-9.46-3.66-9.46-9.52,0-6.58,4.31-9.51,9.27-9.51,2.59,0,5.27.76,6,1.15,1.53-3.5,1.16-8.26-6.39-8.26-9.66,0-18.02,5.81-18.02,17.19,0,8.62,5.34,16.15,17.45,16.15,3.85,0,6.92-.72,8.11-1.34l-1.19-6.77Zm-37.21-24.74v32.37h8.7V13.62c0-4.06-2.21-5.29-8.7-5.29Zm-12.64,12.77c-4.09-1.53-5.83-2.16-5.83-3.8,0-1.43,1.45-2.39,4.1-2.39,3.22,0,6.42,1.19,7.02,1.53,1.22-3.32,1.93-8.6-6.92-8.6-8.17,0-13.02,4.42-13.02,10.15,0,4.8,3.66,7.78,9.13,9.74,3.65,1.25,5.09,2.13,5.09,3.71s-1.44,2.64-4.43,2.64c-3.26,0-6.43-1-8.39-2.02l-1.64,7.16c1.82.96,5.62,1.97,9.51,1.97,9.47,0,13.79-4.76,13.79-10.33,0-4.51-2.58-7.59-8.4-9.76Z"/>
      <path class="cls-1" d="m52.3,0h-27.24l12.51,21.66h7.22l10.04-17.39c.18-.4.29-.83.29-1.29,0-1.58-1.24-2.89-2.81-2.99Z"/>
      <path class="cls-1" d="m22.82,0H2.75c-.41.05-.85.17-1.27.38C.53.94,0,1.93,0,2.99c0,.46.11.9.33,1.34l13.63,23.62L26.45,6.28l-3.63-6.28Z"/>
      <path class="cls-1" d="m15.07,29.86l10.04,17.37c.25.37.55.67.95.9.47.27.98.38,1.51.38.95,0,1.92-.47,2.47-1.32l13.63-23.62h-24.96l-3.63,6.28Z"/>
    </g>
  </g>
</svg>