<?xml version="1.0" encoding="UTF-8"?><svg id="Layer_2" xmlns="http://www.w3.org/2000/svg" viewBox="0 0 16 16"><defs><style>.cls-1{fill:#003641;}</style></defs><g id="Layer_1-2"><path class="cls-1" d="m13.7.4h-7.6c-1.1,0-1.9.9-1.9,1.9v1.8h-1.9c-1.1,0-1.9.9-1.9,2v7.6c0,1.1.9,1.9,1.9,1.9h7.6c1.1,0,1.9-.9,1.9-1.9v-1.8h1.9c1.1,0,1.9-.9,1.9-1.9V2.3c0-1.1-.8-1.9-1.9-1.9Zm-3.4,13.3c0,.2-.2.4-.4.4H2.3c-.2,0-.4-.2-.4-.4v-7.6c0-.2.2-.4.4-.4h7.6c.2,0,.4.2.4.4,0,0,0,7.6,0,7.6Zm3.8-3.8c0,.2-.2.4-.4.4h-1.9v-4.2c0-1.1-.9-1.9-1.9-1.9h-4.2v-1.9c0-.2.2-.4.4-.4h7.6c.2,0,.4.2.4.4v7.6h0Z"/></g></svg>