<?xml version="1.0" encoding="UTF-8"?><svg xmlns="http://www.w3.org/2000/svg" xmlns:xlink="http://www.w3.org/1999/xlink" viewBox="0 0 280 180"><defs><style>.cls-1,.cls-2,.cls-3,.cls-4{fill:none;}.cls-5{fill:url(#linear-gradient);}.cls-2{isolation:isolate;}.cls-6{fill:#d9bd43;}.cls-3{mix-blend-mode:multiply;}.cls-4{clip-path:url(#clippath);}</style><clipPath id="clippath"><rect class="cls-1" width="280" height="180"/></clipPath><linearGradient id="linear-gradient" x1="17.09" y1="-33.79" x2="264.75" y2="213.87" gradientUnits="userSpaceOnUse"><stop offset="0" stop-color="#f5cb16"/><stop offset=".19" stop-color="#fef17b"/><stop offset=".21" stop-color="#fff585"/><stop offset=".54" stop-color="#f0d24d"/><stop offset=".86" stop-color="#e3b31b"/><stop offset="1" stop-color="#f5cb16"/></linearGradient></defs><g class="cls-2"><g id="Layer_1"><g class="cls-4"><rect class="cls-5" x="-10.46" y="-6.24" width="302.76" height="192.56"/><g class="cls-3"><path class="cls-6" d="m155.84,109.81l-7.02,6.2,9.18,1.31-1.46,5.51,5.73-1.53-2.07,10.82.66-.71,8.42-9.07,3.19,4.11,1.53-5.81,7.99,4.24-3.24-7.63,6.66-1.18-4.25-4.24,12.23-6.63-12.92-.49,3.04-5.44-5.59.7,2.31-10.93-8.64,7.76-3.63-7.05-1.78,6.28-8.17-6.38,2.4,8.62-10.54-4.6,6.76,10.16-6.21,2.02,5.4,3.97Zm1.37-.08l-4.76-3.51,5.49-1.79-5.83-8.75,9.36,4.09-2.25-8.08,7.24,5.64,1.65-5.84,3.37,6.56,7.72-6.94-2.11,10,4.97-.63-2.91,5.21.66.02,10.01.37-10.09,5.48,3.83,3.82-5.87,1.04,2.81,6.61-6.8-3.6-1.45,5.49-2.95-3.79-.15.16-7.92,8.52,1.87-9.77-5.6,1.49,1.36-5.11-7.96-1.13,6.29-5.57Z"/><polygon class="cls-6" points="82.01 132.16 110.27 107.2 89.52 91.88 88.62 91.23 113.57 83.09 86.65 42.69 129.6 60.18 120.38 24.56 153.07 50.58 160.59 26.36 160.8 25.72 174.2 54.58 206.99 23.59 207.55 23.06 201.2 68.13 222.18 64.85 209.58 87.4 258.51 89.28 260.21 89.34 212.37 116.76 229.53 132.46 202.62 138.41 215.19 166.47 215.75 167.7 183.89 151.44 177.87 174.27 177.72 174.83 166.44 159.59 139.35 186.32 138.18 186.32 166.33 158.54 166.48 158.38 177.51 173.28 183.49 150.61 183.59 150.23 214.2 165.86 201.86 138.34 201.55 137.62 227.63 131.87 211.5 117.1 210.89 116.54 256.8 90.23 208.9 88.4 208.24 88.38 220.68 66.11 200.47 69.26 206.69 25.01 174.26 55.66 174.06 55.85 160.88 27.48 153.31 51.89 121.52 26.58 130.35 60.69 130.59 61.63 88.8 44.62 114.4 83.01 114.86 83.7 90.62 91.6 111.06 106.69 111.64 107.11 83.95 131.57 118.97 139.43 119.36 139.52 113.8 160.56 137.29 154.99 130.97 186.32 130.37 186.32 136.45 156.22 113.36 161.69 112.85 161.8 118.52 140.36 82.94 132.37 82.01 132.16"/><path class="cls-6" d="m137.61,108.77l-15.49,13.68.96.2,19.14,3.88-3.14,11.87.51-.12,12.36-3.02-4.57,22.93.66-.65,20.11-20.3,6.43,8.57,3.39-12.85,17.54,9.05-7.2-16.31,14.77-3.08-9.42-8.82,26.44-14.94-1.72-.06-26.25-1.01,6.87-12.29-11.77,1.74,3.9-24.57-18.48,17.24-7.53-15.77-.2.64-3.96,13.08-17.98-14.22.33,1.23,4.8,18.18-23.5-9.74,14.82,22.23-13.7,4.47.9.65,10.99,8.13Zm1.37-.08l-11.26-8.32,12.99-4.22-.47-.7-13.47-20.21,22.33,9.27-4.98-18.86,17.06,13.51.13-.41,3.89-12.86,7.3,15.28,17.72-16.52-3.77,23.72,11.05-1.64-6.72,12.03.66.02,25.2.97-24.46,13.81,8.99,8.42-13.94,2.92,6.74,15.26-16.31-8.41-.1.38-3.21,12.12-6.17-8.23-.16.16-19.61,19.81,4.37-21.97-.46.11-12.3,3,3.03-11.48-18.96-3.84,14.88-13.15Z"/><path class="cls-6" d="m164.95,110.34l-2.98,2.64,3.92-.19-.6,2.27,2.19-.71-.84,4.9,3.25-4.34,1.56,1.86.59-2.25,3.17,1.83-1.23-3.25,2.58-.19-1.66-1.98,5.36-2.53-5.6-.21,1.12-1.99-2.39.19,1.66-4.3-3.98,3.21-1.7-2.72-.57,2.55-3.31-2.46,1.03,3.15-4.06-2.06,2.81,4.22-2.46.81,2.14,1.56Zm1.38-.08l-1.51-1.11,1.75-.57-1.71-2.57,2.86,1.46-.89-2.74,2.29,1.71.48-2.17,1.38,2.2,2.47-1.98-1.15,2.98,2.06-.15-1.02,1.83,2.87.11-2.65,1.24,1.25,1.5-1.86.13.89,2.34-2.09-1.19-.53,1.99-1.35-1.6-2.19,2.92.61-3.55-2.01.67.52-1.97-2.26.11,1.8-1.59Z"/><path class="cls-6" d="m146.72,109.3l-11.24,9.93,14.63,2.7-2.29,8.69,9.3-2.33-3.31,16.88,14.91-15.37,4.81,6.34.14-.56,2.32-8.77,12.77,6.64-5.23-11.96,10.71-2.14-6.83-6.53,19.32-10.78-1.74-.06-18.69-.71,4.96-8.88-8.69,1.23,3.11-17.75-.6.54-12.95,11.94-5.57-11.42-2.98,10.01-13.07-10.3.33,1.23,3.43,12.79-17.02-7.16,10.79,16.18-9.95,3.24.9.65,7.74,5.73Zm1.37-.08l-8-5.92,9.24-3.01-9.89-14.83,15.84,6.66-3.61-13.46,12.15,9.59.12-.42,2.72-9.13,5.33,10.92.19-.18,12.54-11.58-2.95,16.88,8-1.13-4.81,8.62.66.02,17.62.67-17.29,9.65,6.41,6.11-9.9,1.98,4.77,10.93-11.54-6-2.38,8.99-4.56-6-13.92,14.34,3.13-15.86-.46.11-8.73,2.18,2.2-8.29-.4-.07-13.07-2.41,10.59-9.36Z"/><path class="cls-6" d="m109.7,125.88l24.62,5.25-3.98,15.08.52-.12,15.93-3.84-5.81,29.01,26.61-26.57,8.05,10.79,4.33-16.36,22.31,11.45-9.18-20.63,18.81-4.05-12-11.12,33.56-19.09-1.71-.06-33.81-1.3,8.78-15.72-14.84,2.25,4.72-31.4-23.43,22-9.5-20.14-.2.64-5.15,16.8-22.88-18.16,6.5,24.83-29.99-12.33.9,1.35,17.95,26.93-17.45,5.69.9.65,14.24,10.53-19.74,17.43.95.21Zm1.01-.81l19.15-16.91-14.51-10.73,16.74-5.44-.46-.7-17.51-26.28,28.81,11.86-6.34-24.25,21.97,17.45.13-.41,5.08-16.57,9.26,19.64.2-.19,22.49-21.11-4.6,30.56,14.1-2.13-8.63,15.44.66.02,32.76,1.26-31.62,17.98,11.58,10.73-17.99,3.87,8.71,19.58-21.08-10.82-.1.39-4.13,15.63-7.79-10.46-25.61,25.59,5.62-28.04-16.34,3.94,3.87-14.66-.39-.09-24.06-5.13Z"/><polygon class="cls-6" points="252.31 37.47 253.09 37.35 232.85 73.56 292.3 75.84 292.3 76.85 232.18 74.55 231.52 74.53 251.59 38.6 219.51 43.72 219.13 43.78 225.76 -6.24 226.33 -6.24 219.85 42.64 252.31 37.47"/><polygon class="cls-6" points="263.97 144.85 264.8 145.6 221.7 155.34 235.66 186.32 234.94 186.32 220.63 154.56 262.89 145.01 236.44 121.05 235.82 120.49 292.3 87.93 292.3 89 237.31 120.7 263.97 144.85"/><polygon class="cls-6" points="29.42 145.34 28.5 145.12 73.81 105.09 40.05 80.17 39.16 79.52 79.11 66.5 36.92 3.22 36.02 1.88 104.92 29.7 95.7 -6.24 96.32 -6.24 105.67 30.2 105.91 31.15 38.18 3.79 79.94 66.42 80.4 67.12 41.16 79.89 74.6 104.59 75.18 105.01 30.43 144.54 87.38 157.89 87.76 157.97 80.27 186.32 79.65 186.32 86.92 158.81 29.42 145.34"/><polygon class="cls-6" points="142.54 14.23 148.97 -6.24 149.62 -6.24 142.91 15.12 142.79 15.52 115.51 -6.24 116.9 -6.24 142.54 14.23"/><polygon class="cls-6" points="244.59 44.35 245.36 44.23 227.03 77.02 292.3 79.52 292.3 80.54 226.36 78.01 225.7 77.99 243.86 45.48 214.85 50.08 214.46 50.14 222.02 -6.24 222.59 -6.24 215.2 49.01 244.59 44.35"/><path class="cls-6" d="m95.38,128.92l31.04,6.83-4.83,18.26.51-.12,19.51-4.65-7.07,35.08.66-.64,31.8-31.54,9.66,13.02,5.26-19.88,27.08,13.87-11.15-24.97,22.86-5-.82-.77-13.75-12.64,40.7-23.25-1.7-.06-41.37-1.59,10.69-19.12-17.91,2.76,5.53-38.24-.56.53-27.82,26.23-11.46-24.5-6.53,21.14-27.79-22.08.32,1.23,7.54,28.99-36.48-14.9.9,1.35,21.99,32.99-21.2,6.92.9.65,17.5,12.92-24,21.2Zm31.88,5.99l-.39-.09-29.54-6.5,23.42-20.69-17.76-13.11,20.5-6.67-.47-.7-21.56-32.33,35.31,14.43-.24-.94-7.47-28.7,26.88,21.37,6.39-20.7,11.22,24.01.2-.19,27.46-25.88-5.41,37.41,17.15-2.64-10.53,18.85.66.02,40.33,1.55-38.76,22.14,14.16,13.01-22.04,4.82,10.68,23.92-25.84-13.23-.1.39-5.06,19.15-9.4-12.68-.16.16-31.3,31.05,6.87-34.14-19.91,4.75,4.71-17.85Z"/><polygon class="cls-6" points="165.3 174.49 153.24 186.32 152.05 186.32 165.19 173.44 165.35 173.28 174.96 186.32 174.02 186.32 165.3 174.49"/><polygon class="cls-6" points="42.8 142.09 41.87 141.87 82.93 105.61 52.42 83.1 51.52 82.44 87.73 70.65 49.58 13.43 48.68 12.09 111.09 37.32 99.9 -6.24 100.51 -6.24 111.84 37.83 112.08 38.77 50.84 13.99 88.55 70.57 89.02 71.26 53.53 82.82 83.72 105.11 84.3 105.54 43.8 141.3 95.66 153.36 87.58 183.95 121.33 176.05 121.79 175.94 119.69 186.32 119.09 186.32 120.95 177.17 87.14 185.08 86.63 185.19 94.82 154.2 42.8 142.09"/><path class="cls-6" d="m47.88,180.95l.38.09-1.4,5.28h-.62l1.18-4.45-53.68-12.85c-.15-.39-.32-.74-.47-1.14l54.6,13.07Z"/><path class="cls-6" d="m247.14,186.32h-.73l-6.38-14.11-.32-.7,51.05-11.66c-.07.35-.1.73-.18,1.07l-49.79,11.37,6.34,14.04Z"/><polygon class="cls-6" points="79.46 -6.24 80.98 -.28 81.23 .65 64.11 -6.24 66.67 -6.24 80.24 -.77 78.84 -6.24 79.46 -6.24"/><polygon class="cls-6" points="176.64 13.65 167.54 -6.24 168.27 -6.24 176.79 12.36 196.33 -6.24 197.53 -6.24 176.85 13.45 176.64 13.65"/><polygon class="cls-6" points="272.78 148.14 273.61 148.89 226.47 159.57 238.54 186.32 237.81 186.32 225.4 158.8 271.7 148.29 242.67 122.04 242.05 121.48 292.3 92.49 292.3 93.55 243.54 121.7 272.78 148.14"/><path class="cls-6" d="m242.45,11.92l2.33-18.15h.58l-2.18,17.03,41.44-6.68c.2.32.42.59.61.92l-42.38,6.83-.39.06Z"/><polygon class="cls-6" points="91.49 -6.24 92.11 -6.24 99.74 23.53 25.96 -6.24 28.54 -6.24 98.75 22.08 91.49 -6.24"/><polygon class="cls-6" points="68.63 135.4 101.16 106.67 77.15 88.95 76.26 88.29 104.96 78.94 73.99 32.49 123.42 52.57 112.84 11.54 150.43 41.49 159.15 13.55 159.35 12.9 174.72 46.14 212.47 10.38 213.02 9.86 205.86 61.75 229.91 57.98 215.4 83.94 271.89 86.11 273.58 86.17 218.6 117.74 238.35 135.74 207.39 142.65 221.93 175.04 222.49 176.28 185.87 157.6 178.91 183.95 178.76 184.5 165.87 167.04 146.26 186.32 145.08 186.32 165.76 165.99 165.92 165.83 178.56 182.95 185.47 156.78 185.57 156.39 220.94 174.43 206.64 142.57 206.32 141.85 236.44 135.15 217.73 118.09 217.12 117.52 270.19 87.07 214.73 84.94 214.06 84.91 228.41 59.23 205.52 62.82 205.13 62.88 212.18 11.8 174.78 47.22 174.58 47.41 159.44 14.69 150.8 42.4 150.67 42.8 113.98 13.57 124.17 53.07 124.42 54.01 76.15 34.41 105.78 78.86 106.25 79.56 78.26 88.67 101.94 106.16 102.52 106.59 70.57 134.82 111.07 144.05 111.46 144.14 105.06 168.35 132.13 161.97 127.2 186.32 126.6 186.32 131.28 163.2 104.62 169.48 104.11 169.6 110.62 144.97 69.57 135.61 68.63 135.4"/><polygon class="cls-6" points="154.44 -6.24 155.09 -6.24 145.54 24.21 145.41 24.61 106.73 -6.24 108.13 -6.24 145.17 23.32 154.44 -6.24"/><polygon class="cls-6" points="175.61 30.53 158.71 -6.24 159.44 -6.24 175.75 29.24 213.11 -6.24 214.31 -6.24 175.81 30.33 175.61 30.53"/><polygon class="cls-6" points="185.49 186.32 184.87 186.32 189.42 169.09 189.52 168.71 224.14 186.32 222.06 186.32 189.82 169.92 185.49 186.32"/><polygon class="cls-6" points="236.86 51.23 237.64 51.11 221.22 80.48 285.26 82.94 286.96 83 224.84 118.73 247.16 139.03 212.16 146.87 229.23 184.84 187.85 163.76 181.89 186.32 181.27 186.32 187.45 162.94 187.54 162.55 227.67 183 211.41 146.8 211.09 146.09 245.25 138.43 223.97 119.08 223.36 118.52 283.56 83.89 220.54 81.47 219.88 81.45 236.13 52.36 210.19 56.45 209.8 56.51 217.66 -1.41 175.3 38.78 175.09 38.97 158 1.89 148.17 33.31 148.04 33.71 106.45 .54 118.01 45.45 118.25 46.4 63.5 24.2 97.17 74.71 97.63 75.41 65.9 85.75 92.83 105.64 93.41 106.06 57.19 138.07 103.56 148.75 96.32 176.15 126.5 169.07 126.96 168.96 123.44 186.32 122.84 186.32 126.11 170.19 95.88 177.28 95.37 177.4 102.72 149.59 56.18 138.86 55.25 138.64 92.04 106.14 64.79 86.02 63.89 85.37 96.34 74.8 62.24 23.64 61.34 22.3 117.26 44.95 105.31 -1.48 147.8 32.41 157.71 .75 157.91 .11 175.24 37.68 217.95 -2.83 218.5 -3.36 210.53 55.38 236.86 51.23"/><polygon class="cls-6" points="255.15 141.57 255.98 142.32 216.93 151.1 232.79 186.32 232.06 186.32 215.86 150.33 254.07 141.73 230.2 120.07 229.59 119.51 292.3 83.39 292.3 84.45 231.07 119.72 255.15 141.57"/><polygon class="cls-6" points="176.13 22.09 163.13 -6.24 163.86 -6.24 176.27 20.8 204.7 -6.24 205.91 -6.24 176.33 21.89 176.13 22.09"/><polygon class="cls-6" points="140.16 6.43 124.28 -6.24 125.66 -6.24 139.92 5.14 143.5 -6.24 144.14 -6.24 140.28 6.04 140.16 6.43"/><polygon class="cls-6" points="191.39 175.25 191.49 174.86 214.03 186.32 211.96 186.32 191.8 176.07 189.09 186.32 188.47 186.32 191.39 175.25"/><path class="cls-6" d="m-.12.32C.05.12.24-.01.41-.2l27.83,41.75.46.69-39.17,12.76v-1.03l37.88-12.34L-.12.32Z"/><polygon class="cls-6" points="-10.46 80.1 -10.46 79.01 19.91 101.43 20.5 101.86 -10.46 129.21 -10.46 128.07 19.13 101.94 -10.46 80.1"/><path class="cls-6" d="m292.3,53.72v1.02l-25.21-.97-.66-.02,22.51-40.27c.1.3.18.63.27.93l-21.44,38.37,24.53.94Z"/><path class="cls-6" d="m292.3,57.41v1.02l-31.02-1.19-.66-.02,26.73-47.84c.12.27.24.52.35.79l-25.74,46.08,30.35,1.16Z"/><polygon class="cls-6" points="292.3 142.47 292.3 143.6 273.84 126.99 273.22 126.44 292.3 115.4 292.3 116.46 274.71 126.64 292.3 142.47"/><polygon class="cls-6" points="292.3 137.83 292.3 138.97 280.08 127.98 279.46 127.42 292.3 119.99 292.3 121.05 280.95 127.62 292.3 137.83"/><path class="cls-6" d="m255.71,186.32h-.72l-.63-1.4-.32-.71,29.64-6.8c-.27.39-.51.84-.79,1.21l-27.77,6.37.6,1.34Z"/><path class="cls-6" d="m280.74-.89c.29.3.6.56.88.88l-34.11,5.51-.39.06,1.51-11.79h.58l-1.36,10.66,32.9-5.32Z"/><polygon class="cls-6" points="-10.46 92.5 -10.46 91.42 1.69 100.39 2.27 100.81 -10.46 112.06 -10.46 110.93 .9 100.89 -10.46 92.5"/><path class="cls-6" d="m292.3,46.34v1.02l-13.57-.52-.66-.02,13.2-23.61c.06.37.13.72.18,1.09l-12.05,21.55,12.9.5Z"/><path class="cls-6" d="m-5.62,9.64c.11-.27.24-.52.35-.79l16.27,24.4.47.7-21.93,7.14v-1.03l20.64-6.72L-5.62,9.64Z"/><path class="cls-6" d="m-7.66,15.36c.09-.31.18-.61.27-.92L2.39,29.1l.46.7-13.27,4.32c0-.36.05-.7.06-1.05l11.92-3.88L-7.66,15.36Z"/><path class="cls-6" d="m-3.11,4.61c.14-.23.29-.43.44-.66l22.3,33.44.47.7-30.55,9.95v-1.03l29.26-9.53L-3.11,4.61Z"/><polygon class="cls-6" points="-10.46 86.3 -10.46 85.21 10.8 100.91 11.38 101.33 -10.46 120.63 -10.46 119.5 10.01 101.41 -10.46 86.3"/><path class="cls-6" d="m292.3,50.03v1.02l-19.39-.75-.66-.02,18.03-32.26c.08.32.2.61.27.93l-16.97,30.35,18.72.72Z"/><polygon class="cls-6" points="83.07 -6.24 83.68 -6.24 87.16 7.34 87.4 8.27 51.36 -6.24 53.94 -6.24 86.41 6.84 83.07 -6.24"/><polygon class="cls-6" points="15.12 148.37 64.69 104.56 27.69 77.25 26.79 76.59 70.5 62.35 24.77 -6.24 25.64 -6.24 71.32 62.28 71.79 62.97 28.8 76.97 65.48 104.06 66.06 104.49 17.04 147.79 79.48 162.5 79.86 162.59 73.59 186.32 72.97 186.32 79.02 163.42 15.12 148.37"/><polygon class="cls-6" points="290.42 154.71 291.24 155.46 236.02 168.04 244.27 186.32 243.55 186.32 234.95 167.27 289.34 154.87 255.14 124.03 254.52 123.48 292.3 101.64 292.3 102.7 256.01 123.67 290.42 154.71"/><path class="cls-6" d="m-8.45,162.05c-.09-.38-.21-.72-.3-1.1l64.52,15.39.38.09-2.61,9.9h-.62l2.39-9.07-63.76-15.21Z"/><polygon class="cls-6" points="2.66 151.83 1.74 151.6 55.58 104.04 15.33 74.32 14.43 73.66 61.87 58.21 18.91 -6.24 19.79 -6.24 62.7 58.13 63.17 58.83 16.43 74.04 56.37 103.54 56.95 103.96 3.66 151.03 71.57 167.11 71.96 167.2 66.91 186.32 66.28 186.32 71.11 168.03 2.66 151.83"/><polygon class="cls-6" points="267.77 23.72 268.54 23.59 244.49 66.63 292.3 68.47 292.3 69.48 243.81 67.62 243.15 67.6 267.04 24.86 228.85 30.98 228.46 31.04 233.32 -6.24 233.89 -6.24 229.18 29.91 267.77 23.72"/><polygon class="cls-6" points="87.28 -6.24 87.9 -6.24 93.32 14.96 93.56 15.89 38.64 -6.24 41.22 -6.24 92.58 14.46 87.28 -6.24"/><polygon class="cls-6" points="187.96 -6.24 189.17 -6.24 177.36 5.01 177.16 5.2 171.93 -6.24 172.66 -6.24 177.3 3.91 187.96 -6.24"/><polygon class="cls-6" points="260.04 30.59 260.82 30.46 238.67 70.09 292.3 72.15 292.3 73.17 238 71.08 237.33 71.07 259.31 31.73 224.18 37.35 223.8 37.41 229.53 -6.24 230.1 -6.24 224.52 36.28 260.04 30.59"/><polygon class="cls-6" points="281.6 151.43 282.43 152.18 231.25 163.81 241.41 186.32 240.69 186.32 230.18 163.03 280.52 151.59 248.9 123.04 248.28 122.48 292.3 97.06 292.3 98.12 249.77 122.68 281.6 151.43"/><path class="cls-6" d="m250,186.32h-.73l-4.47-9.88-.32-.7,44.78-10.24c-.11.36-.21.75-.32,1.1l-43.38,9.92,4.43,9.81Z"/><polygon class="cls-6" points="292.3 61.09 292.3 62.11 255.45 60.7 254.79 60.68 282.49 11.1 238.17 18.23 237.78 18.29 240.95 -6.24 241.52 -6.24 238.51 17.16 283.22 9.96 283.99 9.83 256.13 59.71 292.3 61.09"/><path class="cls-6" d="m252.85,186.32h-.72l-2.55-5.64-.32-.71,37.81-8.67c-.17.38-.34.78-.52,1.15l-36.22,8.29,2.52,5.57Z"/><path class="cls-6" d="m292.2,147.01c0,.37-.04.72-.06,1.08l-24.53-22.09-.62-.55,25.31-14.64v1.06l-23.82,13.78,23.72,21.36Z"/><polygon class="cls-6" points="-10.46 73.9 -10.46 72.81 29.03 101.96 29.61 102.38 -10.46 137.78 -10.46 136.65 28.24 102.46 -10.46 73.9"/><path class="cls-6" d="m2.96,71.4l-.9-.66,51.2-16.68L13.06-6.24h.88l40.15,60.22.46.7L4.06,71.13l43.19,31.88.58.43-57.56,50.84,73.4,17.45.38.09-3.83,14.51h-.63l3.61-13.68-72.91-17.33c-.09-.65-.24-1.24-.32-1.9l56.48-49.9L2.96,71.4Z"/><path class="cls-6" d="m-3.3,175.18l43.28,10.39.38.1-.17.66h-1.33l-41.35-9.93c-.26-.41-.55-.78-.8-1.22Z"/><path class="cls-6" d="m291.95,151.44c-.03.35-.02.73-.06,1.08l-30.52-27.51-.62-.55,31.54-18.24v1.06l-30.05,17.38,29.71,26.78Z"/><polygon class="cls-6" points="275.49 16.84 276.27 16.72 250.31 63.17 292.3 64.78 292.3 65.8 249.63 64.16 248.97 64.14 274.77 17.98 233.51 24.6 233.12 24.66 237.13 -6.24 237.7 -6.24 233.85 23.53 275.49 16.84"/><path class="cls-6" d="m-9.41,68.47l-.9-.66,54.95-17.91L7.73-5.46c.25-.09.52-.07.78-.14l36.96,55.44.47.69-54.24,17.67,46.45,34.28.58.42-49.12,43.39c0-.37-.06-.71-.06-1.07l47.81-42.24L-9.41,68.47Z"/><path class="cls-6" d="m3.43-3.13c.2-.15.43-.22.64-.36l32.79,49.18.46.7-47.79,15.56v-1.03l46.49-15.15L3.43-3.13Z"/></g></g></g></g></svg>