<?xml version="1.0" encoding="utf-8"?>
<!-- Generator: Adobe Illustrator 27.6.1, SVG Export Plug-In . SVG Version: 6.00 Build 0)  -->
<svg version="1.1" id="Layer_2" xmlns="http://www.w3.org/2000/svg" xmlns:xlink="http://www.w3.org/1999/xlink" x="0px" y="0px"
	 viewBox="0 0 16 16" style="enable-background:new 0 0 16 16;" xml:space="preserve">
<style type="text/css">
	.st0{fill:#003641;}
</style>
<path class="st0" d="M15.7,9c0-0.6-0.4-1-1-1s-1,0.4-1,1v3.3L3.7,2.3H7c0.6,0,1-0.4,1-1s-0.4-1-1-1H1.3c-0.1,0-0.3,0-0.4,0.1
	C0.6,0.4,0.4,0.6,0.3,0.9C0.3,1,0.3,1.1,0.3,1.3V7c0,0.6,0.4,1,1,1s1-0.4,1-1V3.7l10.1,10.1H9c-0.6,0-1,0.4-1,1s0.4,1,1,1h5.7
	c0.1,0,0.3,0,0.4-0.1c0.2-0.1,0.4-0.3,0.5-0.5c0.1-0.1,0.1-0.3,0.1-0.4V9z"/>
</svg>
