<?xml version="1.0" encoding="UTF-8"?>
<svg id="Layer_1" data-name="Layer 1" xmlns="http://www.w3.org/2000/svg" viewBox="0 0 142.17 63.33">
  <defs>
    <style>
      .cls-1 {
        fill: #00a295;
      }

      .cls-2 {
        fill: #013742;
      }

      .cls-3 {
        fill: #fff;
      }

      .cls-4 {
        fill: #c8d400;
      }

      .cls-5 {
        fill: #76b82a;
      }
    </style>
  </defs>
  <path class="cls-2" d="m0,0l35.4,61.3c.73,1.26,2.07,2.03,3.52,2.03h99.19c2.24,0,4.06-1.82,4.06-4.06V4.06c0-2.24-1.82-4.06-4.06-4.06H0Z"/>
  <g>
    <g>
      <path class="cls-5" d="m35.4,21.07c-.19.02-.38.07-.55.17-.42.24-.65.68-.65,1.13,0,.2.05.4.14.58l6.42,11.16,2.08-3.6h0l3.39-5.85-2.08-3.59h-8.75Z"/>
      <path class="cls-1" d="m44.15,21.07l5.47,9.45h4.15l4.37-7.59c.08-.17.13-.36.13-.56,0-.69-.55-1.26-1.23-1.3h-12.88Z"/>
      <path class="cls-4" d="m53.46,30.51h-10.62l-2.08,3.6,4.4,7.57c.11.16.25.29.42.4.21.12.43.18.65.18.43,0,.84-.22,1.09-.59l6.45-11.15h-.31Z"/>
    </g>
    <path class="cls-3" d="m95.37,24.46h-.08c-4.31.04-6.96,3.31-6.96,7.4s2.42,7.24,6.81,7.24h.15c4.28-.06,6.96-2.95,6.96-7.47,0-3.78-2.31-7.17-6.88-7.17Zm-.04,11.63h-.04c-1.83,0-2.97-1.77-2.95-4.31,0-2.46,1.11-4.31,2.95-4.31s2.95,1.85,2.95,4.29c0,2.57-1.08,4.34-2.9,4.34Zm31.61-4.89v-.04c1.66-.63,2.31-1.79,2.31-2.96,0-1.39-.8-2.4-1.91-2.92-.93-.47-1.95-.64-3.47-.68-.28,0-.56,0-.87,0-1.74,0-3.61.14-4.48.31v13.88c.76.15,2.02.25,3.75.25.57,0,1.11-.02,1.6-.05,2.08-.14,3.39-.57,4.24-1.21.95-.72,1.6-1.77,1.6-3.12,0-1.68-1.05-2.97-2.77-3.45Zm-4.65-3.8c.25-.04.61-.09,1.24-.09.11,0,.23,0,.34.02,1.06.08,1.58.58,1.58,1.33s-.52,1.25-1.58,1.42c-.25.04-.52.06-.82.06h-.76v-2.73Zm1.58,8.83c-.16.02-.32.03-.48.03-.48,0-.82,0-1.1-.04v-3.38h.9c.24,0,.46,0,.68.04,1.08.14,1.85.62,1.85,1.62,0,1.1-.81,1.62-1.85,1.74Zm-6.49-4.6c0-3.78-2.31-7.17-6.88-7.17h-.08c-4.3.04-6.96,3.31-6.96,7.4s2.42,7.24,6.82,7.24h.14c4.28-.06,6.96-2.95,6.96-7.47Zm-6.92,4.46h-.04c-1.83,0-2.96-1.77-2.94-4.31,0-2.46,1.11-4.31,2.94-4.31s2.94,1.85,2.94,4.29c0,2.57-1.07,4.34-2.91,4.34Zm-23.24-.57c-.59.23-1.62.4-2.53.4-2.61,0-4.14-1.6-4.14-4.17,0-2.88,1.89-4.16,4.06-4.16,1.13,0,2.31.33,2.63.5.67-1.53.51-3.62-2.8-3.62-4.23,0-7.89,2.54-7.89,7.53,0,3.77,2.34,7.07,7.64,7.07,1.69,0,3.03-.32,3.55-.59l-.52-2.96Zm-16.28-10.83v14.17h3.81v-11.86c0-1.78-.97-2.31-3.81-2.31Zm-5.53,5.59c-1.79-.67-2.55-.95-2.55-1.66,0-.63.64-1.05,1.79-1.05,1.41,0,2.81.52,3.07.67.54-1.45.84-3.77-3.03-3.77-3.57,0-5.7,1.94-5.7,4.44,0,2.1,1.6,3.4,4,4.26,1.6.55,2.23.93,2.23,1.62s-.63,1.15-1.94,1.15c-1.43,0-2.82-.44-3.67-.88l-.72,3.13c.8.42,2.46.86,4.16.86,4.15,0,6.04-2.08,6.04-4.52,0-1.98-1.13-3.32-3.68-4.27Z"/>
  </g>
</svg>